<svg xmlns="http://www.w3.org/2000/svg" viewBox="0 0 83.99 39.83"><defs><style>.cls-1{fill:#f27224;}</style></defs><title>etsy_logo</title><g id="Layer_2" data-name="Layer 2"><g id="Layer_1-2" data-name="Layer 1"><path class="cls-1" d="M38.36,28.52c-1.83,0-2.83-1.25-2.83-4.42V12.8l6.17.46L42,10.42l-6.5.25V4.34l-1.8,0h0c-.58,2.59-1.17,4.59-3.21,5.93a7.1,7.1,0,0,1-3,1.16V13h3.71v12.8c0,3.58,2.38,5.34,5.55,5.34,2.46,0,5-1.05,5.88-3.22l-.88-1.12A4.23,4.23,0,0,1,38.36,28.52Z"/><path class="cls-1" d="M23.56,25.35c-1.29,2.92-3.17,3.13-5.25,3.13H12.09C10,28.48,9,27.64,9,25.85v-9.5s4.54,0,6.13.12c1.16.08,1.87.42,2.25,2l.5,2.17h1.79l-.12-5.46.25-5.5H18l-.58,2.41c-.38,1.59-.63,1.88-2.25,2-1.83.21-6.14.16-6.17.16V3.13c0-.42,0-.67.75-.67h9.55c1.66,0,2.58,1.42,3.25,4.09l.54,2.12h1.63c.29-6,.54-8.67.54-8.67s-4.09.46-6.51.46H6.55L0,.25V2l2.21.42c1.54.29,1.92.62,2,2,0,0,.13,4.17.13,11.05s-.13,11-.13,11c0,1.25-.5,1.71-2,2L0,28.94v1.75l6.55-.21H17.47c2.46,0,8.17.21,8.17.21.13-1.5,1-8.3,1.09-9H25.19Z"/><path class="cls-1" d="M80,10.53l-4.24-.21v1.46l1.08.33c1.08.33,1.58.75,1.58,1.5a4.31,4.31,0,0,1-.33,1.33c-.53,1.34-3.4,8.32-4.89,11.63C71.41,22,69,15.35,68.58,14.15a2.16,2.16,0,0,1-.12-.67c0-.66.46-1.2,1.46-1.41l1.37-.29V10.32l-5.7.21-4.54-.21v1.46l.75.25c1,.33,1.29.62,1.92,2.08,3.37,7.74,5,12.05,7.14,17.53-2.16,4.41-4.61,5.65-6.85,5.65-1.13,0-1.67-.5-1.83-1.29l-.63-3.25-1.75.09c-.33,1.91-.66,4-1.12,5.78a7.51,7.51,0,0,0,4.16,1.21c2.87,0,7.24-.38,11.24-9.86l6.7-15.82c.54-1.29.75-1.41,2.33-2l.88-.33V10.32Z"/><path class="cls-1" d="M49,14.18c0-2,1.76-2.71,3.67-2.71,1.5,0,2.76.55,3,1.34l1,3.13,1.54-.09c.13-1.67.21-3.58.46-5.13a18.6,18.6,0,0,0-5.88-.91c-4.09,0-7.38,1.79-7.38,5.79,0,7,10.26,5.55,10.26,10.68,0,1.83-1.13,3.12-3.67,3.12a3.88,3.88,0,0,1-4-2.41l-1.17-3h0L45.32,24c.09.91.13,2.08.13,3.16a19.18,19.18,0,0,1-.13,2.67A21.13,21.13,0,0,0,51.7,31c4.34,0,7.8-2.09,7.8-6.17C59.5,17.85,49,18.9,49,14.18Z"/></g></g></svg>