<svg xmlns="http://www.w3.org/2000/svg" viewBox="0 0 71.79 78"><defs><style>.cls-1{fill:#2e2e34;}</style></defs><title>Logo-full</title><g id="Layer_2" data-name="Layer 2"><g id="Layer_1-2" data-name="Layer 1"><g id="Logo-full"><path class="cls-1" d="M17.62,67.82c-.36-1.5.12-3.11,0-4.64a5.84,5.84,0,0,0-3.68-4.78A11.51,11.51,0,0,0,9.13,58C7.76,58,6.38,57.87,5,58c-1,.1-2,.5-2.18,1.58C2.41,62,3,64.61,2.93,67c-.05,3.16-.14,6.85,0,10A.79.79,0,0,0,4.46,77c-.09-3.25,0-6.46,0-9.72a32.19,32.19,0,0,0-.14-4.05,5.3,5.3,0,0,1,.27-3.13c.38-.76,1.67-.65,2.37-.67s1.46-.08,2.17,0l1.34,0c2.55.05,4.64.8,5.49,3.43.55,1.7-.1,3.68.19,5.45.15.88.52,1.66.65,2.42a5.22,5.22,0,0,1-.59,3.4,3.93,3.93,0,0,1-3,1.87,18,18,0,0,1-2.65.11c-1,0-1,1.61.06,1.61,1.9,0,4.19,0,5.72-1.31a6.34,6.34,0,0,0,2.06-5.22,17.6,17.6,0,0,0-.74-3.35"/><path class="cls-1" d="M15.35,63.65a3.18,3.18,0,0,0-2.23-2.87,13.24,13.24,0,0,0-6.73-.37,1.31,1.31,0,0,0-1.14,1.32c0,.52-.09,1-.1,1.55,0,1.81.11,3.61.06,5.42-.08,2.59.07,5.77,0,8.36,0,1,1.55,1,1.58,0,.09-2.85-.06-6.29,0-9.14a36,36,0,0,0-.08-3.75,3.21,3.21,0,0,1,.12-1.57A1.78,1.78,0,0,1,8.4,61.7a10.27,10.27,0,0,1,2.28.13c1.59.22,3,.51,3.12,2.58.06,1.28-.38,2.44-.05,3.73s1.39,3.16.44,4.47c-.75,1-2.48,1-3.62,1.06s-1,1.62.06,1.61c2.54,0,6.13-1.12,5.51-4.48-.22-1.23-.76-2.36-1-3.6a35.4,35.4,0,0,1,.16-3.55"/><path class="cls-1" d="M10.47,65.74c-1,.17-.53,1.71.46,1.54,4.07-.69,1.76-5.79-1.76-5.08-2.1.42-1.65,2.38-1.58,4.09.14,3.43.07,7.3.1,10.73a.79.79,0,0,0,1.58,0c0-2.75-.1-5.9-.12-8.64,0-1.16,0-2.3-.05-3.46C9,63.15,11.36,63.8,11.52,65c.06.46-.68.66-1,.72"/><path class="cls-1" d="M10.75,71.52a.66.66,0,0,0-.65.38.83.83,0,0,0,.7,1.21,2.72,2.72,0,0,0,2.37-.72,3.08,3.08,0,0,0,.58-2.08c-.07-1.85-1.62-2.44-3.18-2.49-.79,0-1,1-.39,1.45s1.32,0,1.79.53a1.38,1.38,0,0,1,0,1.45c-.3.45-.82.26-1.27.27"/><path class="cls-1" d="M69.47,69.55a23.36,23.36,0,0,0-.57-6.41c-.9-3.49-4.12-5-7.5-5.15C52.34,57.62,54,71.59,54,77.17a.8.8,0,0,0,1.59-.06c-.05-5.13-1.86-17.29,5.85-17.54,9.27-.3,5.34,12.44,6.68,17.75.25,1,1.76.52,1.52-.46-.51-2-.22-5.25-.18-7.31"/><path class="cls-1" d="M57.89,71.79c.09-.16.44-.19.72-.2l.7,0c.9-.07,1.2,0,2-.09a18.67,18.67,0,0,1,2.59,0c.69,0,1.48-.14,1.53.32a19.64,19.64,0,0,1,0,2c0,.56,0,1.12.07,1.68s0,1.13,0,1.7c0,1,1.58,1,1.59-.05,0-3.52,0-8-.19-11.51-.2-3-1.5-4.58-4.44-5.12-7.85-1.44-6.31,12.27-6.13,16.59A.79.79,0,0,0,58,77.11c-.06-1.41-.15-3.73-.16-4.23a4,4,0,0,1,0-1.09m7.54-3.19c0,.5.17,1.26-.48,1.37a6.8,6.8,0,0,1-1.56-.06,16.64,16.64,0,0,0-1.73,0c-.57,0-1.14.07-1.71.11l-.85.07c-.35,0-.64.15-1,0,0,0,0,0,0,0s-.19-.2-.21-.23a.89.89,0,0,1-.05-.32c0-.32,0-.66.05-1,.09-1.42-.1-3,.69-4.48,1-1.91,3-2.13,4.86-1.64,2.41.64,2,4.3,2,6.19"/><path class="cls-1" d="M62.48,72.17c-.66,0-1.32,0-2,0s-1.19-.22-1.79.35c-.44.41-.29.87-.27,1.38,0,.83,0,2.51.08,3.34.09,1,1.68,1,1.59,0,0-.48-.11-1.8-.1-2.28a10.43,10.43,0,0,1,0-1.2c.41,0,.87,0,1.24,0,.53,0,1.06,0,1.59,0s.4.08.5.57a13.81,13.81,0,0,1,0,2.65c0,1.08,1.43,1.3,1.49.24a24.41,24.41,0,0,0,0-4c0-.32,0-.73-.37-.84a8.13,8.13,0,0,0-1.94-.2"/><path class="cls-1" d="M63.85,63.69c-1-.74-3.27-.83-4.08.11a6,6,0,0,0-1,4.77c.07.51.66.38,1.16.36a22.78,22.78,0,0,1,2.33,0c.23,0,.57,0,.8,0s.51,0,.82,0c1.05,0,.9-.79.84-1.77,0-.26,0-1,0-1.27a2.9,2.9,0,0,0-.89-2.14m-.56,3.63c-.44,0-.85,0-1.24,0a10,10,0,0,1-1.87,0c-.09-.09-.11-1.87.58-2.37.4-.28,2.07-.4,2.27.12a7.44,7.44,0,0,1,.29,1.76c0,.16.1.48,0,.46"/><path class="cls-1" d="M24.49,69.25c.08,1.53,1.29,3.87,3.1,3.72s2.69-1.63,2.77-3.45c.15-3.42-.05-7.44.12-10.87.05-1-1.49-.94-1.54.06-.1,1.92-.07,4.41-.09,6.33s.45,4.51-.32,5.77a1.23,1.23,0,0,1-2.07-.27A3.06,3.06,0,0,1,26,69.19a34.79,34.79,0,0,1-.12-3.54c0-2.15.08-4.85-.12-7-.09-1-1.63-.95-1.54.06.31,3.3.08,7.22.24,10.54"/><path class="cls-1" d="M22,65.58a22.84,22.84,0,0,0,.07,5c.55,2.56,2.83,4.95,5.56,4.95s4.54-2,5.14-4.68c.81-3.65.37-8.4.25-12.11a.77.77,0,0,0-1.54.06c.09,2.68.14,5.95.06,8.64s-.26,6.12-3.45,6.53c-3.4.44-4.66-3.28-4.62-6,.05-3,0-6.5,0-9.46a.77.77,0,0,0-1.54.05c.06,2.15.14,4.87.11,7"/><path class="cls-1" d="M27.18,77.61c3.62.12,6.47-1.59,7.59-5.14a24.34,24.34,0,0,0,.67-5.84c.14-2.43.13-5.43.13-7.86,0-1-1.54-1-1.54.06,0,3.26-.05,7.08-.28,10.33-.28,3.89-1.92,6.78-6.08,6.91-8.67.27-6.44-12-6.49-17.44a.77.77,0,0,0-1.54,0c.06,6.38-2,18.61,7.54,18.93"/><path class="cls-1" d="M52.05,70.11a5.61,5.61,0,0,1-.45-1.79c.08-1.79,1.23-3.42.95-5.31-.55-3.59-4-4.94-7.18-5.21a46.15,46.15,0,0,0-5.26,0c-1.08,0-2.71.51-3,1.75a12,12,0,0,0,.11,4,25.17,25.17,0,0,1,.22,4c0,2.45-.09,4.9-.24,7.34,0,.65-.09,1.31-.16,2-.11,1,1.44,1.35,1.55.34a70.34,70.34,0,0,0,.23-7.26v-.16c-.16-2.29-.13-4.58-.13-6.87,0-.33,0-.66,0-1a2.74,2.74,0,0,1,.4-2,1.82,1.82,0,0,1,1.08-.51,37.48,37.48,0,0,1,4.24,0,9.76,9.76,0,0,1,4.46.92c2.42,1.24,2.45,4.12,1.72,6.34-.24.71-.64,1.1-.65,1.72a8.17,8.17,0,0,0,.59,2.25c.67,2.1.25,4.36.42,6.5.07,1,1.67,1,1.59,0-.18-2.29.29-4.68-.48-6.91"/><path class="cls-1" d="M48.38,68.18a4.28,4.28,0,0,0,1.7-3.76c-.16-3.25-3-4.27-5.78-4.48s-5-.42-4.91,2.93c.1,4.39.26,9.74.25,14.14,0,1,1.59,1,1.59-.06,0-4.23,0-9.47-.22-13.69-.15-2.69,3.46-1.83,5.21-1.5,1.58.3,2.22,1.82,2.29,3.23.09,1.83-2,2.57-3.44,2.49-.9,0-1,1.45-.15,1.56l2,.27c1.58.23,1.56,2,1.61,3.11,0,1.39-.1,3.15-.19,4.53-.06,1,1.53,1,1.59-.06.14-2.21.45-4.88-.19-7a2.66,2.66,0,0,0-1.39-1.66"/><path class="cls-1" d="M44.8,69.58a.79.79,0,0,0,.05,1.57c1.54,0,1.33,1.16,1.39,2.34s0,2.48,0,3.53,1.57,1,1.59,0a33.19,33.19,0,0,0-.21-5.64C47.41,70,46,69.56,44.8,69.58"/><path class="cls-1" d="M43.4,64.45c-.09-.91.58-1.12,1.36-1,1.06.23,1.25,1.92.13,2a.79.79,0,0,0,0,1.57c1.6-.08,3.05-.91,2.47-2.81-.52-1.74-2-2.39-3.77-2.29-2,.11-1.84,2-1.76,3.45.22,3.57,0,8.14.18,11.72a.8.8,0,0,0,1.59-.05c-.12-2.73-.19-6.4-.22-9.13,0-1.16.09-2.33,0-3.49"/><path class="cls-1" d="M71.73,36.56a27.59,27.59,0,0,0,0-3.15c-.13-1-.37-2.1-.6-3.14s-.88-2.25-1.2-3.41a22.45,22.45,0,0,0-.85-2.79c-.81-1.92-2-3.72-2.92-5.58a32.56,32.56,0,0,0-3.43-4.81c-1.2-1.6-2-3.26-3.58-4.54a43.68,43.68,0,0,0-6-4.06c-.93-.51-2-.82-2.94-1.24A12.25,12.25,0,0,0,47.93,3a10.38,10.38,0,0,0-2.37-.53,5.79,5.79,0,0,0-3,1.12,5.4,5.4,0,0,0-2.27,2.18,11.88,11.88,0,0,0-.71,3.11,19.37,19.37,0,0,0,.14,7.88c.55,2.1.68,4.4,1.86,6.27a7.82,7.82,0,0,0,3.51,3.2,4.3,4.3,0,0,0,2.2.48,6,6,0,0,0,2.67-1.09c.77-.78,2-1.91,2.75-1.17.46.45.41,1-.13,1.68a7,7,0,0,1-1.49,1.66,8.41,8.41,0,0,1-2.16,1.09,7.82,7.82,0,0,1-2.42,0,7.18,7.18,0,0,1-5.43-2.37,16.48,16.48,0,0,1-3.33-6.85,24.11,24.11,0,0,1-.49-4.49,20.84,20.84,0,0,1-.12-2.12,32,32,0,0,1,.35-4.4,13,13,0,0,1,1-3.24,11.74,11.74,0,0,1,1.26-2.56A7.47,7.47,0,0,1,41.89,1.1,12.11,12.11,0,0,0,40.65.6,11.53,11.53,0,0,0,38.41.09,22.75,22.75,0,0,0,33.53.2c-.93.1-1.86.2-2.79.27C28.07.65,25.67,1.87,23.3,3c-2,.94-3.93,1.94-5.84,3-1.74,1-4,2-5.28,3.51-1,1.18-1.63,2.67-2.73,3.82-.74.78-1.59,1.45-2.3,2.26a13.66,13.66,0,0,0-1.66,2.93c-.47.92-1.14,1.71-1.61,2.63-.61,1.17-.81,2.53-1.36,3.73a13.9,13.9,0,0,0-1.38,3.7C.87,30.55.31,32.43.23,34.41s0,4-.21,6.09.66,3.81,1.14,5.72c.68,2.7.74,5.77,1.91,8.31.09.22,1,.1,1.19.06A36.41,36.41,0,0,1,10.69,54c1.63-.1,3.12.45,4.72.45s3.4-.24,5.13-.12a29,29,0,0,0,5.1,0,8.2,8.2,0,0,1,2.1,0,2.54,2.54,0,0,0,1.52,0c1.13-.51,1.33-2.13,2.5-2.73,2.43-1.26,6.48-.71,8,1.76.23.4.34,1,.8,1.15a6.46,6.46,0,0,0,2-.11c3.07-.06,6.14.44,9.2,0,2.57-.4,5.23.58,7.77-.13-.27-1.64-1-4.34.85-5.36,1.37-.76,3.15-.21,4.5-1S66,45.46,66,44.19a27.55,27.55,0,0,0-.36-5.52c-.38-2.1-1.18-4.15-1.4-6.27-.15-1.4.49-1.83,1.45-.68,2.51,3,2.26,7.83,2.19,11.5,0,2.07-.12,4.61-1.59,6.24C65,50.92,63,50.8,61.21,50.62c-.08.76-.44,2.61,0,3.33s2.18.48,2.85.49c1.19,0,2.5.18,3.67.12,1.46-.07,1.87-1.92,2.24-3a39.47,39.47,0,0,0,1.36-5.45,26.38,26.38,0,0,0,.25-4.78c0-1.57.2-3.13.19-4.69v0M51.57,12.43c0-1,.81-1.34,1.8-1.34s2,.36,2,1.34-1,1.53-2,1.53a1.61,1.61,0,0,1-1.82-1.53M64.39,38c.11,0,0,.2-.08.3s-.07.19-.32.19c-.51,0-1.58-.36-2.92-.59a13.65,13.65,0,0,1-2.94-.43,10.27,10.27,0,0,1-2.38-1.78,7,7,0,0,1-2.08-2,7.9,7.9,0,0,1-1.37-2.77c0-.07.43-.12.52-.13a21.43,21.43,0,0,0,2.41-.27.92.92,0,0,1,.49.16.54.54,0,0,1,.18.27,27.59,27.59,0,0,0,1.34,2.61A8.27,8.27,0,0,0,59,35.91a10.17,10.17,0,0,0,2.69,1.15,10.39,10.39,0,0,0,2.71,1"/></g></g></g></svg>