<svg xmlns="http://www.w3.org/2000/svg" height="30px" viewBox="0 0 8 7.63"><defs><style>.cls-1{fill:#ffe20d;}</style></defs><title>star</title><g id="Layer_2" data-name="Layer 2"><g id="Layer_1-2" data-name="Layer 1"><path class="cls-1" d="M4.16.12,5,2.67a.16.16,0,0,0,.16.11H7.83a.17.17,0,0,1,.1.31L5.76,4.66a.18.18,0,0,0-.06.19L6.53,7.4a.17.17,0,0,1-.26.19L4.1,6a.15.15,0,0,0-.2,0L1.73,7.59a.17.17,0,0,1-.26-.19L2.3,4.85a.18.18,0,0,0-.06-.19L.07,3.09a.17.17,0,0,1,.1-.31H2.85A.16.16,0,0,0,3,2.67L3.84.12A.17.17,0,0,1,4.16.12Z"/></g></g></svg>